<?xml version="1.0" standalone="no"?>
<!DOCTYPE svg PUBLIC "-//W3C//DTD SVG 20010904//EN"
 "http://www.w3.org/TR/2001/REC-SVG-20010904/DTD/svg10.dtd">
<svg version="1.0" xmlns="http://www.w3.org/2000/svg"
 width="220.000000pt" height="220.000000pt" viewBox="0 0 220.000000 220.000000"
 preserveAspectRatio="xMidYMid meet">
<metadata>
Created by potrace 1.11, written by Peter Selinger 2001-2013
</metadata>
<g transform="translate(0.000000,220.000000) scale(0.100000,-0.100000)"
fill="#000000" stroke="none">
<path d="M570 2032 l0 -48 -75 1 c-44 0 -74 -3 -72 -9 2 -5 35 -8 75 -7 l72 2
0 -65 c0 -68 12 -84 40 -51 7 8 25 15 41 15 27 0 29 -3 29 -41 l0 -40 -87 3
c-49 2 -95 7 -104 11 -13 7 -15 -4 -14 -75 0 -71 3 -83 18 -86 12 -2 20 4 24
16 4 17 13 19 76 19 40 -1 74 -4 78 -9 3 -4 3 -24 1 -43 -5 -39 0 -38 -124
-36 -46 1 -78 -3 -78 -9 0 -6 38 -10 95 -10 102 0 105 -2 86 -53 -9 -24 -10
-24 -145 -22 -89 1 -133 -2 -126 -9 5 -5 60 -9 130 -7 66 1 120 -1 120 -6 0
-16 -41 -74 -72 -103 -18 -16 -59 -43 -91 -61 -83 -44 -62 -49 25 -6 77 38
149 101 170 148 17 38 48 38 70 1 28 -48 112 -126 167 -155 44 -25 54 -27 68
-15 9 7 28 18 42 24 25 11 25 11 -19 19 -102 17 -210 78 -241 137 -10 19 -8
20 63 18 127 -4 218 0 218 8 0 4 -13 15 -28 24 -27 16 -30 16 -46 0 -13 -14
-39 -17 -141 -18 l-125 -2 6 37 c4 20 8 37 9 39 2 2 56 3 120 3 65 -1 121 2
126 5 9 5 -32 44 -46 44 -5 0 -13 -7 -19 -15 -8 -11 -31 -15 -81 -16 -104 -1
-98 -4 -91 44 3 23 5 42 5 43 1 0 39 1 86 1 63 0 88 -3 93 -14 5 -8 15 -11 25
-7 12 4 17 18 17 50 0 28 5 46 15 52 13 7 11 12 -10 32 -22 21 -29 22 -45 12
-11 -7 -54 -12 -99 -12 l-78 0 0 33 c1 37 11 47 50 47 17 0 27 -5 27 -15 0
-16 25 -21 34 -7 3 5 6 34 7 65 l2 57 85 0 c88 0 99 8 50 38 -26 15 -28 15
-50 -5 -13 -12 -32 -20 -43 -18 -11 2 -26 4 -32 4 -19 1 -15 49 4 60 22 12 15
19 -25 27 l-31 6 -3 -48 -3 -49 -80 -1 c-44 0 -85 1 -92 4 -15 5 -9 52 8 63
10 6 6 11 -14 18 -44 17 -47 14 -47 -37z m230 -102 c0 -22 -3 -40 -7 -41 -37
-3 -166 -3 -172 1 -4 3 -7 22 -7 43 l-1 37 94 0 93 0 0 -40z m-122 -198 l3
-42 -80 0 -81 0 0 39 c0 22 5 41 11 43 5 2 40 3 77 3 l67 -1 3 -42z m211 39
c5 -1 8 -19 8 -41 l-1 -40 -88 0 -88 0 0 39 c0 22 5 41 10 43 9 3 133 2 159
-1z"/>
<path d="M1526 2028 c1 -29 -2 -57 -6 -63 -10 -12 -260 -13 -278 -1 -7 4 -10
11 -7 16 3 5 1 11 -4 14 -4 3 -11 -10 -14 -30 -3 -19 -20 -52 -36 -73 -30 -38
-40 -84 -22 -96 21 -13 69 65 73 120 l2 25 303 0 c167 0 303 -4 303 -8 0 -4
-4 -12 -8 -17 -20 -23 -53 -85 -45 -85 5 0 30 20 56 45 27 25 57 45 67 45 10
0 21 4 25 9 7 12 -67 64 -75 52 -13 -20 -53 -27 -155 -25 -60 1 -116 2 -122 3
-20 2 -17 81 2 81 26 0 16 18 -16 29 -46 16 -45 16 -43 -41z"/>
<path d="M260 2040 c0 -5 4 -10 9 -10 5 0 24 -20 42 -45 35 -46 53 -55 62 -31
8 21 -19 54 -63 76 -45 23 -50 24 -50 10z"/>
<path d="M419 1904 c-6 -16 -32 -92 -59 -169 -69 -202 -64 -195 -119 -195
l-46 0 42 -19 c23 -11 46 -28 51 -38 5 -10 8 -54 6 -98 -4 -85 4 -112 30 -102
26 10 30 36 17 96 -20 87 -17 116 32 292 64 228 69 250 63 256 -3 3 -10 -7
-17 -23z"/>
<path d="M220 1864 c1 -5 21 -31 46 -59 34 -38 47 -47 53 -36 5 7 7 21 4 30
-6 25 -104 87 -103 65z"/>
<path d="M1671 1828 c-9 -10 -61 -13 -189 -13 -111 0 -175 -4 -172 -10 3 -6
72 -9 174 -8 l168 2 -45 -52 c-25 -28 -52 -51 -61 -51 -13 2 -16 -9 -16 -57
l0 -59 -190 0 c-104 0 -190 -4 -190 -9 0 -5 81 -8 181 -7 99 0 185 -2 190 -5
6 -3 8 -54 7 -115 l-3 -109 -65 -1 c-89 -1 -92 -3 -38 -20 26 -8 52 -23 58
-34 8 -16 15 -17 38 -9 45 16 53 40 54 167 0 65 4 119 8 122 5 3 90 4 189 3
100 0 183 2 185 6 3 4 -10 17 -29 29 l-33 23 -25 -23 c-23 -22 -30 -23 -161
-20 l-136 3 0 29 c0 16 7 36 17 45 12 12 13 19 4 24 -15 10 105 95 135 96 36
0 37 11 4 39 -36 30 -41 31 -59 14z"/>
<path d="M1640 982 c0 -5 18 -17 40 -27 22 -10 45 -24 51 -32 8 -9 11 -127 11
-396 0 -211 3 -389 8 -396 4 -8 13 -11 19 -7 21 14 31 88 33 250 1 91 4 166 7
167 3 0 43 2 88 3 84 2 109 11 94 34 -12 20 -62 24 -106 9 -84 -28 -80 -36
-80 178 l0 190 -50 17 c-54 18 -115 23 -115 10z"/>
<path d="M717 974 c-4 -4 14 -19 40 -33 l48 -26 5 -292 c3 -160 8 -294 12
-298 3 -4 14 5 23 19 13 19 19 56 22 134 3 59 7 109 9 111 2 2 39 5 82 7 104
3 102 2 102 19 0 30 -73 40 -118 16 -12 -6 -32 -11 -47 -11 l-26 0 2 162 1
163 -29 11 c-39 16 -116 27 -126 18z"/>
<path d="M381 894 c25 -30 63 -41 137 -38 75 2 106 14 85 35 -5 5 -61 12 -122
14 -100 3 -111 2 -100 -11z"/>
<path d="M1492 810 c-24 -4 -101 -6 -173 -6 -71 1 -129 -2 -129 -5 0 -14 95
-47 110 -39 9 5 63 12 120 15 l103 7 -33 -58 c-66 -117 -160 -225 -288 -328
-40 -32 -71 -61 -68 -63 13 -13 159 90 249 176 l58 55 92 -97 c51 -54 98 -97
105 -97 38 1 -10 100 -61 126 -18 9 -51 32 -74 50 l-41 34 74 112 c40 61 72
114 69 117 -8 7 -64 8 -113 1z"/>
<path d="M648 791 c-33 -12 -85 -16 -225 -16 -101 0 -183 -3 -183 -6 0 -16 83
-47 104 -40 11 5 48 8 81 7 47 -1 60 -5 63 -18 2 -12 -11 -20 -52 -32 -69 -20
-106 -63 -106 -124 0 -76 71 -132 169 -132 130 0 210 92 164 189 -16 31 -76
71 -108 71 -17 0 -37 40 -26 52 3 4 52 9 108 11 110 5 131 11 113 32 -17 21
-55 23 -102 6z m-83 -136 c84 -40 69 -159 -22 -182 -76 -19 -150 21 -157 83
-10 85 90 140 179 99z"/>
<path d="M400 370 c-12 -7 -11 -10 5 -15 60 -19 69 -31 70 -91 2 -64 24 -93
74 -95 82 -4 404 2 412 6 5 4 5 14 -1 26 -12 22 -80 27 -127 8 -36 -14 -263
-22 -283 -10 -10 7 -14 30 -15 85 0 41 -3 77 -6 80 -11 11 -114 16 -129 6z"/>
</g>
</svg>
